<svg xmlns="http://www.w3.org/2000/svg" xmlns:xlink="http://www.w3.org/1999/xlink" width="3000" height="517" viewBox="0 0 3000 517">
  <defs>
    <linearGradient id="linear-gradient" x1="0.5" x2="0.5" y2="1" gradientUnits="objectBoundingBox">
      <stop offset="0" stop-color="#321450"/>
      <stop offset="1" stop-color="#190a28"/>
    </linearGradient>
    <clipPath id="clip-path">
      <rect id="Rectangle_3523" data-name="Rectangle 3523" width="895" height="516" transform="translate(1025 5394)" fill="#fff" stroke="#707070" stroke-width="1"/>
    </clipPath>
    <clipPath id="clip-path-2">
      <rect id="Rectangle_3522" data-name="Rectangle 3522" width="1694" height="953" transform="translate(-59.999 0)" fill="none"/>
    </clipPath>
    <clipPath id="clip-path-3">
      <path id="Path_8911" data-name="Path 8911" d="M-302,0H508.054L340.761,517H-302Z" transform="translate(-7025 -15486) rotate(180)" fill="none"/>
    </clipPath>
    <linearGradient id="linear-gradient-2" x1="0.207" y1="0.478" x2="0.207" y2="0.988" gradientUnits="objectBoundingBox">
      <stop offset="0" stop-color="#321450"/>
      <stop offset="0.478"/>
      <stop offset="1" stop-color="#190a28"/>
    </linearGradient>
    <clipPath id="clip-path-4">
      <rect id="Rectangle_3208" data-name="Rectangle 3208" width="76.547" height="516.69" fill="none"/>
    </clipPath>
    <linearGradient id="linear-gradient-3" x1="0.556" x2="0.558" y2="0.942" gradientUnits="objectBoundingBox">
      <stop offset="0"/>
      <stop offset="1" stop-color="#321450"/>
    </linearGradient>
    <clipPath id="clip-path-5">
      <path id="Path_7785" data-name="Path 7785" d="M-3310.662-1207.011h253.124l167.883-516.69h-421.007Z" transform="translate(3310.662 1723.701)" fill="none"/>
    </clipPath>
    <linearGradient id="linear-gradient-13" x1="0.654" y1="0.123" x2="0.659" y2="0.947" xlink:href="#linear-gradient-3"/>
    <linearGradient id="linear-gradient-24" x1="0.5" x2="0.5" y2="1" gradientUnits="objectBoundingBox">
      <stop offset="0" stop-color="#321450"/>
      <stop offset="1" stop-color="#321450" stop-opacity="0"/>
    </linearGradient>
    <linearGradient id="linear-gradient-25" x1="0.5" x2="0.5" y2="1" gradientUnits="objectBoundingBox">
      <stop offset="0" stop-color="#190a28" stop-opacity="0"/>
      <stop offset="1" stop-color="#190a28"/>
    </linearGradient>
  </defs>
  <g id="Group_5890" data-name="Group 5890" transform="translate(19245 18736)">
    <rect id="Rectangle_3520" data-name="Rectangle 3520" width="3000" height="517" transform="translate(-16245 -18219) rotate(180)" fill="url(#linear-gradient)"/>
    <g id="Mask_Group_262" data-name="Mask Group 262" transform="translate(-18770 -24129)" clip-path="url(#clip-path)">
      <g id="Group_5301" data-name="Group 5301" transform="translate(3174.09 8418.3)">
        <g id="Group_5300" data-name="Group 5300" transform="translate(-2149.09 -3025.3)" clip-path="url(#clip-path-2)">
          <g id="Group_5299" data-name="Group 5299" transform="translate(0.001 -0.829)">
            <path id="Path_8891" data-name="Path 8891" d="M-1020.431-3025.737l698.348,507.379v-72.816l-598.124-434.562Z" transform="translate(2016.457 3025.737)" fill="#190a28"/>
            <path id="Path_8892" data-name="Path 8892" d="M-2149.089-2131.949l214.4,155.772h100.224l-314.627-228.589Z" transform="translate(2149.089 2929.262)" fill="#190a28"/>
            <path id="Path_8893" data-name="Path 8893" d="M-2149.089-2378.163l513.464,373.052H-1535.4l-613.689-445.869Z" transform="translate(2149.089 2958.196)" fill="#190a28"/>
            <path id="Path_8894" data-name="Path 8894" d="M-2149.089-2624.378l812.526,590.334h100.224L-2149.089-2697.2Z" transform="translate(2149.089 2987.13)" fill="#190a28"/>
            <path id="Path_8895" data-name="Path 8895" d="M-2149.089-2870.593-1037.5-2062.978h100.224L-2149.089-2943.41Z" transform="translate(2149.089 3016.063)" fill="#190a28"/>
            <path id="Path_8896" data-name="Path 8896" d="M-2037.088-3025.737l1311.812,953.085h100.224l-1311.811-953.085Z" transform="translate(2135.927 3025.737)" fill="#190a28"/>
            <path id="Path_8897" data-name="Path 8897" d="M-1359.316-3025.737l997.411,724.661v-72.818l-897.186-651.843Z" transform="translate(2056.281 3025.737)" fill="#190a28"/>
            <path id="Path_8898" data-name="Path 8898" d="M-1698.2-3025.737-401.729-2083.8v-72.818l-1196.248-869.124Z" transform="translate(2096.104 3025.737)" fill="#190a28"/>
            <path id="Path_8899" data-name="Path 8899" d="M-342.66-3025.737l100.224,72.816v-72.816Z" transform="translate(1936.81 3025.737)" fill="#190a28"/>
            <path id="Path_8900" data-name="Path 8900" d="M-681.545-3025.737l399.286,290.1v-72.817l-299.062-217.281Z" transform="translate(1976.634 3025.737)" fill="#190a28"/>
          </g>
        </g>
      </g>
    </g>
    <g id="Mask_Group_181" data-name="Mask Group 181" transform="translate(-9825 -2733)" clip-path="url(#clip-path-3)">
      <g id="Group_5302" data-name="Group 5302" transform="translate(-6721.309 -15004.696) rotate(180)">
        <path id="Union_111" data-name="Union 111" d="M334,1011.785,0,769.119V615.758l545.086,396.027Zm1269.915-.006L211.325,0H422.408L1798.719,999.951v11.828Zm-317.479,0L0,77.129V0H104.929L1497.522,1011.779Zm-317.479,0L0,307.795V154.434l1180.044,857.346Zm-317.479,0L0,538.453V385.094l862.565,626.686Zm-634.957,0L0,999.777V846.416l227.608,165.363ZM528.8,0H739.887L1798.719,769.293V922.652ZM846.283,0h211.083l741.354,538.625V691.988Zm317.479,0h211.083l423.875,307.967V461.324ZM1481.24,0h211.082l106.4,77.3V230.666Z" transform="translate(-0.001 -0.002)" fill="url(#linear-gradient-2)"/>
      </g>
    </g>
    <g id="Group_5298" data-name="Group 5298" transform="translate(-15191.459 -17012.299)">
      <rect id="Rectangle_3207" data-name="Rectangle 3207" width="918.561" height="516.69" transform="translate(-3567.577 -1723.701)" fill="none"/>
      <g id="Group_4461" data-name="Group 4461" transform="translate(-3515.151 -1723.701)">
        <g id="Group_4457" data-name="Group 4457">
          <g id="Group_4456" data-name="Group 4456" clip-path="url(#clip-path-4)">
            <g id="Group_4455" data-name="Group 4455" transform="translate(-402.541 -102.369)">
              <path id="Path_7758" data-name="Path 7758" d="M-3113.571-1723.7l378.591,275.062v-39.476L-3059.237-1723.7Z" transform="translate(3773.203 1826.07)" fill="none"/>
              <path id="Path_7759" data-name="Path 7759" d="M-3595.111-1723.7h-54.334l711.164,516.69h-107.795l-656.953-477.3v39.476l602.619,437.827H-3208.2l-494.824-359.51v39.476l440.49,320.034h-107.794l-332.7-241.717v39.476l278.361,202.241h-107.795l-170.566-123.923v39.476l116.232,84.448H-3694.59l-8.438-6.13v6.13h819.081Z" transform="translate(3822.691 1826.07)" fill="none"/>
              <path id="Path_7760" data-name="Path 7760" d="M-3290.559-1723.7l540.72,392.856v-39.476l-486.386-353.38Z" transform="translate(3788.062 1826.07)" fill="none"/>
              <path id="Path_7761" data-name="Path 7761" d="M-3467.546-1723.7l702.848,510.649v-39.476L-3413.212-1723.7Z" transform="translate(3802.921 1826.07)" fill="none"/>
              <path id="Path_7762" data-name="Path 7762" d="M-2759.6-1723.7l54.334,39.476V-1723.7Z" transform="translate(3743.486 1826.07)" fill="none"/>
              <path id="Path_7763" data-name="Path 7763" d="M-2936.584-1723.7l216.462,157.269v-39.476L-2882.25-1723.7Z" transform="translate(3758.344 1826.07)" fill="none"/>
              <path id="Path_7764" data-name="Path 7764" d="M-2792.754-1835.452l204.37,148.484v-98.723l-68.49-49.761Z" transform="translate(3746.269 1835.452)" fill="url(#linear-gradient-3)"/>
              <path id="Path_7765" data-name="Path 7765" d="M-3015.854-1835.452l408.74,296.967v-98.723l-272.86-198.245Z" transform="translate(3765 1835.452)" fill="url(#linear-gradient-3)"/>
              <path id="Path_7766" data-name="Path 7766" d="M-3238.955-1835.452-2625.844-1390v-98.722h0l-477.23-346.728Z" transform="translate(3783.73 1835.452)" fill="url(#linear-gradient-3)"/>
              <path id="Path_7767" data-name="Path 7767" d="M-3462.055-1835.452l817.481,593.934v-98.723l-681.6-495.212Z" transform="translate(3802.46 1835.452)" fill="url(#linear-gradient-3)"/>
              <path id="Path_7768" data-name="Path 7768" d="M-3685.156-1835.452l896.453,651.311h125.4v-7.615l-885.971-643.7Z" transform="translate(3821.19 1835.452)" fill="url(#linear-gradient-3)"/>
              <path id="Path_7769" data-name="Path 7769" d="M-2869.661-1184.142l-896.453-651.311h-67.544v49.649l828.117,601.662Z" transform="translate(3833.657 1835.452)" fill="url(#linear-gradient-3)"/>
              <path id="Path_7770" data-name="Path 7770" d="M-3482.771-1147.814l-350.886-254.933v98.722l215.006,156.211Z" transform="translate(3833.657 1799.125)" fill="url(#linear-gradient-3)"/>
              <path id="Path_7771" data-name="Path 7771" d="M-3687.142-1134.206l-146.516-106.45v98.722l10.636,7.728Z" transform="translate(3833.657 1785.517)" fill="url(#linear-gradient-3)"/>
              <path id="Path_7772" data-name="Path 7772" d="M-3278.4-1161.423l-555.256-403.417v98.723l419.376,304.695Z" transform="translate(3833.657 1812.733)" fill="url(#linear-gradient-3)"/>
              <path id="Path_7773" data-name="Path 7773" d="M-3074.031-1175.031l-759.626-551.9v98.722l623.747,453.178Z" transform="translate(3833.657 1826.342)" fill="url(#linear-gradient-3)"/>
            </g>
          </g>
        </g>
        <g id="Group_4460" data-name="Group 4460" transform="translate(76.547)">
          <g id="Group_4459" data-name="Group 4459" clip-path="url(#clip-path-5)">
            <path id="Path_7774" data-name="Path 7774" d="M-2904.3-1835.452l306.555,222.725v-98.722l-170.675-124Z" transform="translate(3276.546 1733.083)" fill="url(#linear-gradient-13)"/>
            <path id="Path_7775" data-name="Path 7775" d="M-2579.019-1761.211v-74.242H-2681.2Z" transform="translate(3257.816 1733.083)" fill="url(#linear-gradient-13)"/>
            <path id="Path_7776" data-name="Path 7776" d="M-3127.4-1835.452l510.926,371.209v-98.723l-375.045-272.486Z" transform="translate(3295.277 1733.083)" fill="url(#linear-gradient-13)"/>
            <path id="Path_7777" data-name="Path 7777" d="M-3350.5-1835.452l715.3,519.692v-98.722h0l-579.416-420.97Z" transform="translate(3314.007 1733.083)" fill="url(#linear-gradient-13)"/>
            <path id="Path_7778" data-name="Path 7778" d="M-3573.605-1835.452l896.453,651.311h23.213V-1266l-783.786-569.453Z" transform="translate(3332.737 1733.083)" fill="url(#linear-gradient-13)"/>
            <path id="Path_7779" data-name="Path 7779" d="M-3796.706-1835.452l896.453,651.311h135.88l-896.453-651.311Z" transform="translate(3351.467 1733.083)" fill="url(#linear-gradient-13)"/>
            <path id="Path_7780" data-name="Path 7780" d="M-3833.657-1222.979l112.821,81.969h135.88l-248.7-180.692Z" transform="translate(3354.57 1689.952)" fill="url(#linear-gradient-13)"/>
            <path id="Path_7781" data-name="Path 7781" d="M-3833.657-1127.4h44.331l-44.331-32.208Z" transform="translate(3354.57 1676.343)" fill="url(#linear-gradient-13)"/>
            <path id="Path_7782" data-name="Path 7782" d="M-3833.657-1385.071l317.191,230.453h135.88l-453.071-329.175Z" transform="translate(3354.57 1703.56)" fill="url(#linear-gradient-13)"/>
            <path id="Path_7783" data-name="Path 7783" d="M-3833.657-1547.163l521.562,378.936h135.88l-657.442-477.659Z" transform="translate(3354.57 1717.168)" fill="url(#linear-gradient-13)"/>
            <g id="Group_4458" data-name="Group 4458" transform="translate(-479.088 -77.201)">
              <path id="Path_7784" data-name="Path 7784" d="M-2971.846-1181.835l-861.812-626.143v98.723l725.932,527.42Z" transform="translate(3833.657 1807.977)" fill="url(#linear-gradient-13)"/>
            </g>
          </g>
        </g>
      </g>
    </g>
    <rect id="Rectangle_3524" data-name="Rectangle 3524" width="3000" height="241" transform="translate(-16245 -18219) rotate(180)" fill="url(#linear-gradient-24)"/>
    <rect id="Rectangle_3521" data-name="Rectangle 3521" width="3000" height="193" transform="translate(-16245 -18542) rotate(-180)" fill="url(#linear-gradient-25)"/>
  </g>
</svg>
