<svg xmlns="http://www.w3.org/2000/svg" xmlns:xlink="http://www.w3.org/1999/xlink" width="1070" height="234" viewBox="0 0 1070 234">
  <defs>
    <linearGradient id="linear-gradient" x1="0.5" x2="0.5" y2="1" gradientUnits="objectBoundingBox">
      <stop offset="0" stop-color="#190a28"/>
      <stop offset="1" stop-color="#321450"/>
    </linearGradient>
    <clipPath id="clip-path">
      <rect id="Rectangle_3442" data-name="Rectangle 3442" width="405.087" height="233.547" transform="translate(0 0)" fill="#fff" stroke="#707070" stroke-width="1"/>
    </clipPath>
    <clipPath id="clip-path-2">
      <rect id="Rectangle_3441" data-name="Rectangle 3441" width="766.723" height="431.339" transform="translate(0 0)" fill="none"/>
    </clipPath>
    <clipPath id="clip-path-3">
      <path id="Path_8199" data-name="Path 8199" d="M0,0H366.639L290.921,234H0Z" transform="translate(366.639 234) rotate(180)" fill="none"/>
    </clipPath>
    <linearGradient id="linear-gradient-2" x1="0.207" y1="0.478" x2="0.207" y2="0.988" gradientUnits="objectBoundingBox">
      <stop offset="0" stop-color="#321450"/>
      <stop offset="0.478"/>
      <stop offset="1" stop-color="#190a28"/>
    </linearGradient>
    <clipPath id="clip-path-4">
      <rect id="Rectangle_3208" data-name="Rectangle 3208" width="34.646" height="233.86" fill="none"/>
    </clipPath>
    <linearGradient id="linear-gradient-3" x1="0.556" x2="0.558" y2="0.942" gradientUnits="objectBoundingBox">
      <stop offset="0"/>
      <stop offset="1" stop-color="#321450"/>
    </linearGradient>
    <clipPath id="clip-path-5">
      <path id="Path_7785" data-name="Path 7785" d="M-3310.662-1489.841h114.567l75.986-233.86h-190.552Z" transform="translate(3310.662 1723.701)" fill="none"/>
    </clipPath>
    <linearGradient id="linear-gradient-13" x1="0.654" y1="0.123" x2="0.659" y2="0.947" xlink:href="#linear-gradient-3"/>
    <linearGradient id="linear-gradient-24" x1="0.5" x2="0.5" y2="1" gradientUnits="objectBoundingBox">
      <stop offset="0" stop-color="#321450"/>
      <stop offset="1" stop-color="#321450" stop-opacity="0"/>
    </linearGradient>
    <linearGradient id="linear-gradient-25" x1="0.5" x2="0.5" y2="1" gradientUnits="objectBoundingBox">
      <stop offset="0" stop-color="#190a28" stop-opacity="0"/>
      <stop offset="1" stop-color="#190a28"/>
    </linearGradient>
  </defs>
  <g id="Group_7212" data-name="Group 7212" transform="translate(4475 20931)">
    <rect id="Rectangle_4338" data-name="Rectangle 4338" width="1070" height="234" transform="translate(-4475 -20931)" fill="url(#linear-gradient)"/>
    <g id="Group_7210" data-name="Group 7210" transform="translate(-7784 -12092.227)">
      <g id="Mask_Group_240" data-name="Mask Group 240" transform="translate(3811.928 -8838.321)" clip-path="url(#clip-path)">
        <g id="Group_5104" data-name="Group 5104" transform="translate(-27.156 -0.452)">
          <g id="Group_5103" data-name="Group 5103" transform="translate(0 0)" clip-path="url(#clip-path-2)">
            <g id="Group_5102" data-name="Group 5102" transform="translate(27.157 -0.375)">
              <path id="Path_8751" data-name="Path 8751" d="M-1020.431-3025.737l316.08,229.646v-32.958l-270.718-196.688Z" transform="translate(1471.243 3025.737)" fill="#190a28"/>
              <path id="Path_8752" data-name="Path 8752" d="M-2149.089-2171.808l97.041,70.5h45.363l-142.4-103.462Z" transform="translate(2149.089 2532.681)" fill="#190a28"/>
              <path id="Path_8753" data-name="Path 8753" d="M-2149.089-2418.022l232.4,168.848h45.363l-277.762-201.805Z" transform="translate(2149.089 2680.551)" fill="#190a28"/>
              <path id="Path_8754" data-name="Path 8754" d="M-2149.089-2664.237l367.759,267.192h45.363l-413.121-300.15Z" transform="translate(2149.089 2828.423)" fill="#190a28"/>
              <path id="Path_8755" data-name="Path 8755" d="M-2149.089-2910.452l503.118,365.536h45.363l-548.48-398.494Z" transform="translate(2149.089 2976.294)" fill="#190a28"/>
              <path id="Path_8756" data-name="Path 8756" d="M-2037.088-3025.737l593.741,431.377h45.363l-593.74-431.377Z" transform="translate(2081.824 3025.737)" fill="#190a28"/>
              <path id="Path_8757" data-name="Path 8757" d="M-1359.316-3025.737l451.439,327.99v-32.958l-406.076-295.031Z" transform="translate(1674.77 3025.737)" fill="#190a28"/>
              <path id="Path_8758" data-name="Path 8758" d="M-1698.2-3025.737l586.8,426.333v-32.958l-541.435-393.375Z" transform="translate(1878.297 3025.737)" fill="#190a28"/>
              <path id="Path_8759" data-name="Path 8759" d="M-342.66-3025.737l45.363,32.958v-32.958Z" transform="translate(1064.19 3025.737)" fill="#190a28"/>
              <path id="Path_8760" data-name="Path 8760" d="M-681.545-3025.737l180.721,131.3v-32.958l-135.359-98.344Z" transform="translate(1267.717 3025.737)" fill="#190a28"/>
            </g>
          </g>
        </g>
      </g>
      <g id="Mask_Group_181" data-name="Mask Group 181" transform="translate(3987.064 -8838.773)" clip-path="url(#clip-path-3)">
        <g id="Group_4695" data-name="Group 4695" transform="translate(367.405 451.843) rotate(180)">
          <path id="Union_83" data-name="Union 83" d="M151.174,457.944,0,348.111V278.7L246.712,457.944Zm574.778,0L95.648,0h95.538L814.12,452.588v5.354Zm-143.695,0L0,34.909V0H47.492L677.8,457.942Zm-143.694,0L0,139.311V69.9L534.1,457.942Zm-143.694,0L0,243.709V174.3L390.407,457.942Zm-287.389,0L0,452.51V383.1l103.018,74.845ZM239.342,0h95.539L814.12,348.19V417.6ZM383.037,0h95.538L814.12,243.788V313.2ZM526.731,0h95.538L814.12,139.389V208.8ZM670.425,0h95.538L814.12,34.988V104.4Z" transform="translate(0)" fill="url(#linear-gradient-2)"/>
        </g>
      </g>
      <g id="Group_4696" data-name="Group 4696" transform="translate(3352.964 -8838.773)">
        <rect id="Rectangle_3207" data-name="Rectangle 3207" width="415.751" height="233.86" transform="translate(0 0)" fill="none"/>
        <g id="Group_4461" data-name="Group 4461" transform="translate(23.728 0)">
          <g id="Group_4457" data-name="Group 4457">
            <g id="Group_4456" data-name="Group 4456" clip-path="url(#clip-path-4)">
              <g id="Group_4455" data-name="Group 4455" transform="translate(-182.195 -46.333)">
                <path id="Path_7758" data-name="Path 7758" d="M-3113.571-1723.7l171.354,124.5v-17.867L-3088.979-1723.7Z" transform="translate(3412.128 1770.035)" fill="none"/>
                <path id="Path_7759" data-name="Path 7759" d="M-3654.184-1723.7h-24.592l321.881,233.86h-48.789l-297.344-216.033v17.867l272.752,198.166h-48.789l-223.963-162.718v17.867l199.371,144.851h-48.789l-150.582-109.4v17.867l125.989,91.537h-48.789l-77.2-56.089v17.867l52.608,38.222h-48.789l-3.819-2.775v2.775H-3332.3Z" transform="translate(3757.189 1770.035)" fill="none"/>
                <path id="Path_7760" data-name="Path 7760" d="M-3290.559-1723.7l244.736,177.811v-17.867L-3265.967-1723.7Z" transform="translate(3515.734 1770.035)" fill="none"/>
                <path id="Path_7761" data-name="Path 7761" d="M-3467.546-1723.7l318.117,231.125v-17.867L-3442.954-1723.7Z" transform="translate(3619.341 1770.035)" fill="none"/>
                <path id="Path_7762" data-name="Path 7762" d="M-2759.6-1723.7l24.592,17.867V-1723.7Z" transform="translate(3204.916 1770.035)" fill="none"/>
                <path id="Path_7763" data-name="Path 7763" d="M-2936.584-1723.7l97.973,71.182v-17.867l-73.381-53.315Z" transform="translate(3308.522 1770.035)" fill="none"/>
                <path id="Path_7764" data-name="Path 7764" d="M-2792.754-1835.452l92.5,67.205v-44.683l-31-22.522Z" transform="translate(3224.326 1835.452)" fill="url(#linear-gradient-3)"/>
                <path id="Path_7765" data-name="Path 7765" d="M-3015.854-1835.452l185,134.411v-44.683l-123.5-89.728Z" transform="translate(3354.926 1835.452)" fill="url(#linear-gradient-3)"/>
                <path id="Path_7766" data-name="Path 7766" d="M-3238.955-1835.452l277.5,201.616v-44.683h0l-216-156.933Z" transform="translate(3485.526 1835.452)" fill="url(#linear-gradient-3)"/>
                <path id="Path_7767" data-name="Path 7767" d="M-3462.055-1835.452l370,268.821v-44.683l-308.5-224.138Z" transform="translate(3616.126 1835.452)" fill="url(#linear-gradient-3)"/>
                <path id="Path_7768" data-name="Path 7768" d="M-3685.156-1835.452l405.745,294.791h56.757v-3.447l-401-291.344Z" transform="translate(3746.726 1835.452)" fill="url(#linear-gradient-3)"/>
                <path id="Path_7769" data-name="Path 7769" d="M-3397.342-1540.662l-405.745-294.791h-30.571v22.472l374.815,272.319Z" transform="translate(3833.657 1835.452)" fill="url(#linear-gradient-3)"/>
                <path id="Path_7770" data-name="Path 7770" d="M-3674.842-1287.362l-158.815-115.386v44.683l97.314,70.7Z" transform="translate(3833.657 1582.153)" fill="url(#linear-gradient-3)"/>
                <path id="Path_7771" data-name="Path 7771" d="M-3767.343-1192.475l-66.314-48.18v44.683l4.814,3.5Z" transform="translate(3833.657 1487.266)" fill="url(#linear-gradient-3)"/>
                <path id="Path_7772" data-name="Path 7772" d="M-3582.342-1382.249l-251.315-182.591v44.683l189.814,137.908Z" transform="translate(3833.657 1677.039)" fill="url(#linear-gradient-3)"/>
                <path id="Path_7773" data-name="Path 7773" d="M-3489.842-1477.135l-343.815-249.8v44.683l282.314,205.114Z" transform="translate(3833.657 1771.926)" fill="url(#linear-gradient-3)"/>
              </g>
            </g>
          </g>
          <g id="Group_4460" data-name="Group 4460" transform="translate(34.646)">
            <g id="Group_4459" data-name="Group 4459" clip-path="url(#clip-path-5)">
              <path id="Path_7774" data-name="Path 7774" d="M-2904.3-1835.452l138.75,100.808v-44.683l-77.25-56.125Z" transform="translate(3072.785 1789.119)" fill="url(#linear-gradient-13)"/>
              <path id="Path_7775" data-name="Path 7775" d="M-2634.954-1801.85v-33.6h-46.25Z" transform="translate(2942.185 1789.119)" fill="url(#linear-gradient-13)"/>
              <path id="Path_7776" data-name="Path 7776" d="M-3127.4-1835.452l231.25,168.013v-44.683l-169.75-123.33Z" transform="translate(3203.385 1789.119)" fill="url(#linear-gradient-13)"/>
              <path id="Path_7777" data-name="Path 7777" d="M-3350.5-1835.452l323.751,235.219v-44.683h0L-3289-1835.452Z" transform="translate(3333.985 1789.119)" fill="url(#linear-gradient-13)"/>
              <path id="Path_7778" data-name="Path 7778" d="M-3573.605-1835.452l405.745,294.791h10.507v-37.05l-354.75-257.741Z" transform="translate(3464.586 1789.119)" fill="url(#linear-gradient-13)"/>
              <path id="Path_7779" data-name="Path 7779" d="M-3796.706-1835.452l405.745,294.791h61.5l-405.744-294.791Z" transform="translate(3595.186 1789.119)" fill="url(#linear-gradient-13)"/>
              <path id="Path_7780" data-name="Path 7780" d="M-3833.657-1277.019l51.064,37.1h61.5l-112.565-81.783Z" transform="translate(3616.817 1488.376)" fill="url(#linear-gradient-13)"/>
              <path id="Path_7781" data-name="Path 7781" d="M-3833.657-1145.032h20.064l-20.064-14.578Z" transform="translate(3616.817 1393.489)" fill="url(#linear-gradient-13)"/>
              <path id="Path_7782" data-name="Path 7782" d="M-3833.657-1439.111l143.564,104.306h61.5l-205.065-148.989Z" transform="translate(3616.817 1583.262)" fill="url(#linear-gradient-13)"/>
              <path id="Path_7783" data-name="Path 7783" d="M-3833.657-1601.2l236.064,171.511h61.5l-297.565-216.194Z" transform="translate(3616.817 1678.149)" fill="url(#linear-gradient-13)"/>
              <g id="Group_4458" data-name="Group 4458" transform="translate(-216.841 -34.942)">
                <path id="Path_7784" data-name="Path 7784" d="M-3443.592-1524.578l-390.065-283.4v44.683l328.565,238.716Z" transform="translate(3833.657 1807.977)" fill="url(#linear-gradient-13)"/>
              </g>
            </g>
          </g>
        </g>
      </g>
      <rect id="Rectangle_3443" data-name="Rectangle 3443" width="1065.485" height="109.079" transform="translate(4376.781 -8604.773) rotate(180)" fill="url(#linear-gradient-24)"/>
      <rect id="Rectangle_3406" data-name="Rectangle 3406" width="869.014" height="87.354" transform="translate(4246.435 -8750.967) rotate(-180)" fill="url(#linear-gradient-25)"/>
    </g>
  </g>
</svg>
