<svg id="Group_10231" data-name="Group 10231" xmlns="http://www.w3.org/2000/svg" width="83.692" height="57.621" viewBox="0 0 83.692 57.621">
  <path id="Path_3093" data-name="Path 3093" d="M643.153,2143.092a6.1,6.1,0,0,0-6.092-6.092h-61.43a6.1,6.1,0,0,0-6.092,6.092v40.574H564.5v5.516a5.444,5.444,0,0,0,5.438,5.438h72.816a5.444,5.444,0,0,0,5.438-5.438v-5.516h-5.039Zm-70.985,0a3.467,3.467,0,0,1,3.463-3.463h61.43a3.467,3.467,0,0,1,3.463,3.463v40.355H572.168Zm73.395,43.2v2.887a2.813,2.813,0,0,1-2.809,2.809H569.938a2.812,2.812,0,0,1-2.809-2.809V2186.3Z" transform="translate(-564.5 -2137)" fill="#fff"/>
</svg>
