<svg width="1101.75" height="197.003" viewBox="0 0 1101.75 197.003" xmlns="http://www.w3.org/2000/svg">
  <g id="svgGroup" stroke-linecap="round" fill-rule="evenodd" font-size="19pt" stroke="#ed1065" fill="#ffffff">
    <path
      d="M 44.75 194.251 L 5 194.251 L 25 96.501 L 0 96.501 L 7 65.251 L 31.25 65.251 L 35.5 44.501 Q 40.25 23.251 54.125 12.001 A 49.511 49.511 0 0 1 76.689 1.85 A 68.797 68.797 0 0 1 89.25 0.751 A 97.537 97.537 0 0 1 99.229 1.283 A 115.569 115.569 0 0 1 104 1.876 Q 111.127 2.911 115.083 4.686 A 17.607 17.607 0 0 1 115.75 5.001 L 108.75 38.251 A 65.549 65.549 0 0 0 99.47 36.106 A 51.283 51.283 0 0 0 91.75 35.501 Q 86.323 35.501 82.577 37.253 A 13.728 13.728 0 0 0 80.25 38.626 Q 76.1 41.678 74.811 47.947 A 24.098 24.098 0 0 0 74.75 48.251 L 71.25 65.251 L 104.5 65.251 L 97.5 96.501 L 64.75 96.501 L 44.75 194.251 Z"
      id="0" />
    <path
      d="M 187.25 125.001 L 188.5 118.751 Q 189.884 112.385 188.586 107.858 A 12.572 12.572 0 0 0 184.75 101.751 Q 178.5 96.251 163.25 96.251 A 66.046 66.046 0 0 0 156.406 96.626 Q 152.869 96.996 148.998 97.728 A 105.383 105.383 0 0 0 148.875 97.751 A 106.654 106.654 0 0 0 142.6 99.158 Q 139.139 100.037 135.278 101.221 A 207.523 207.523 0 0 0 130.5 102.751 L 121.5 74.251 Q 136.75 68.751 149.625 66.126 A 132.238 132.238 0 0 1 164.806 63.902 A 108.327 108.327 0 0 1 174 63.501 Q 194.5 63.501 207.875 70.126 A 42.549 42.549 0 0 1 218.318 77.276 A 34.892 34.892 0 0 1 226.5 89.001 Q 230.793 99.018 229.068 112.379 A 72.607 72.607 0 0 1 228 118.501 L 211.5 194.251 L 172.25 194.251 L 174.75 183.251 Q 167.668 188.228 161.612 191.006 A 49.747 49.747 0 0 1 158 192.501 Q 150.5 195.251 142 195.251 A 57.511 57.511 0 0 1 129.973 194.067 Q 119.929 191.919 113 185.876 Q 102.25 176.501 102.25 160.501 A 45.193 45.193 0 0 1 103.533 149.49 A 35.166 35.166 0 0 1 108.5 138.251 A 37.639 37.639 0 0 1 120.646 126.958 A 48.631 48.631 0 0 1 126.5 124.001 Q 137.493 119.324 152.424 119.022 A 102.839 102.839 0 0 1 154.5 119.001 Q 162.75 119.001 171.125 120.626 Q 179.5 122.251 187.25 125.001 Z M 178.75 163.751 L 182.75 145.501 Q 178 144.251 172 143.501 Q 166 142.751 159.75 142.751 A 44.996 44.996 0 0 0 153.825 143.115 Q 147.787 143.92 144 146.501 Q 138.5 150.251 138.5 157.251 A 9.537 9.537 0 0 0 141.949 164.761 A 13.879 13.879 0 0 0 143.625 166.001 Q 147.401 168.396 153.417 169.026 A 44.067 44.067 0 0 0 158 169.251 A 43.093 43.093 0 0 0 166.273 168.478 A 38.54 38.54 0 0 0 168.875 167.876 Q 174 166.501 178.75 163.751 Z"
      id="1" />
    <path
      d="M 281.5 194.251 L 241.75 194.251 L 269.75 65.251 L 309.5 65.251 L 305.25 85.251 A 71.971 71.971 0 0 1 315.773 75.141 A 58.72 58.72 0 0 1 325 69.251 Q 335.75 63.751 347.5 63.751 Q 360.011 63.751 368.47 69.193 A 29.82 29.82 0 0 1 369.125 69.626 Q 377.75 75.501 381 85.876 A 37.363 37.363 0 0 1 382.584 94.482 Q 382.922 99.334 382.182 104.767 A 66.842 66.842 0 0 1 381.25 110.001 L 363.25 194.251 L 323.5 194.251 L 339.5 120.001 A 36.319 36.319 0 0 0 340.147 116.327 Q 340.772 111.172 339.584 107.017 A 17.371 17.371 0 0 0 337.25 102.001 A 15.397 15.397 0 0 0 327.101 95.453 A 24.643 24.643 0 0 0 322.25 95.001 Q 316.5 95.001 311.25 97.376 A 30.642 30.642 0 0 0 305.583 100.759 A 41.993 41.993 0 0 0 301 104.751 L 281.5 194.251 Z"
      id="2" />
    <path
      d="M 415.25 152.251 L 427.25 96.501 L 402.75 96.501 L 409.75 65.251 L 433.75 65.251 L 441.5 29.501 L 483 21.251 L 473.5 65.251 L 507.5 65.251 L 500.5 96.501 L 466.75 96.501 L 456.25 146.001 A 32.452 32.452 0 0 0 455.779 148.48 Q 454.896 154.452 457.055 157.727 A 7.48 7.48 0 0 0 457.75 158.626 Q 460.849 162.058 468.849 162.451 A 43.886 43.886 0 0 0 471 162.501 Q 474 162.501 476.75 162.126 A 60.987 60.987 0 0 0 478.344 161.884 Q 481.063 161.439 485.75 160.501 L 478.75 193.001 A 58.349 58.349 0 0 1 474.889 193.869 Q 472.722 194.284 470.231 194.622 A 118.199 118.199 0 0 1 467.125 195.001 Q 460.25 195.751 453.5 195.751 A 74.851 74.851 0 0 1 441.752 194.896 Q 427.761 192.666 420.625 184.626 A 26.335 26.335 0 0 1 414.537 172.03 Q 412.851 163.579 415.25 152.251 Z"
      id="3" />
    <path
      d="M 589.75 125.001 L 591 118.751 Q 592.384 112.385 591.086 107.858 A 12.572 12.572 0 0 0 587.25 101.751 Q 581 96.251 565.75 96.251 A 66.046 66.046 0 0 0 558.906 96.626 Q 555.369 96.996 551.498 97.728 A 105.383 105.383 0 0 0 551.375 97.751 A 106.654 106.654 0 0 0 545.1 99.158 Q 541.639 100.037 537.778 101.221 A 207.523 207.523 0 0 0 533 102.751 L 524 74.251 Q 539.25 68.751 552.125 66.126 A 132.238 132.238 0 0 1 567.306 63.902 A 108.327 108.327 0 0 1 576.5 63.501 Q 597 63.501 610.375 70.126 A 42.549 42.549 0 0 1 620.818 77.276 A 34.892 34.892 0 0 1 629 89.001 Q 633.293 99.018 631.568 112.379 A 72.607 72.607 0 0 1 630.5 118.501 L 614 194.251 L 574.75 194.251 L 577.25 183.251 Q 570.168 188.228 564.112 191.006 A 49.747 49.747 0 0 1 560.5 192.501 Q 553 195.251 544.5 195.251 A 57.511 57.511 0 0 1 532.473 194.067 Q 522.429 191.919 515.5 185.876 Q 504.75 176.501 504.75 160.501 A 45.193 45.193 0 0 1 506.033 149.49 A 35.166 35.166 0 0 1 511 138.251 A 37.639 37.639 0 0 1 523.146 126.958 A 48.631 48.631 0 0 1 529 124.001 Q 539.993 119.324 554.924 119.022 A 102.839 102.839 0 0 1 557 119.001 Q 565.25 119.001 573.625 120.626 Q 582 122.251 589.75 125.001 Z M 581.25 163.751 L 585.25 145.501 Q 580.5 144.251 574.5 143.501 Q 568.5 142.751 562.25 142.751 A 44.996 44.996 0 0 0 556.325 143.115 Q 550.287 143.92 546.5 146.501 Q 541 150.251 541 157.251 A 9.537 9.537 0 0 0 544.449 164.761 A 13.879 13.879 0 0 0 546.125 166.001 Q 549.901 168.396 555.917 169.026 A 44.067 44.067 0 0 0 560.5 169.251 A 43.093 43.093 0 0 0 568.773 168.478 A 38.54 38.54 0 0 0 571.375 167.876 Q 576.5 166.501 581.25 163.751 Z"
      id="4" />
    <path
      d="M 744.75 194.251 L 637.75 194.251 L 643.75 166.001 L 713 98.751 L 659 99.251 L 666 65.251 L 770.75 65.251 L 764.75 93.501 L 695.25 161.001 L 752 160.501 L 744.75 194.251 Z"
      id="5" fill="#ed1065" />
    <path
      d="M 872.25 194.251 L 765.25 194.251 L 771.25 166.001 L 840.5 98.751 L 786.5 99.251 L 793.5 65.251 L 898.25 65.251 L 892.25 93.501 L 822.75 161.001 L 879.5 160.501 L 872.25 194.251 Z"
      id="6" fill="#ed1065" />
    <path
      d="M 936.5 194.251 L 896.75 194.251 L 924.75 65.251 L 964.5 65.251 L 936.5 194.251 Z M 949.5 45.251 Q 941 45.251 935.25 39.626 A 18.842 18.842 0 0 1 929.506 26.03 A 24.739 24.739 0 0 1 929.5 25.501 Q 929.5 18.751 933 12.876 Q 936.5 7.001 942.25 3.501 Q 948 0.001 954.5 0.001 A 20.734 20.734 0 0 1 962.901 1.672 A 19.93 19.93 0 0 1 968.875 5.751 A 19.082 19.082 0 0 1 974.747 19.605 A 24.32 24.32 0 0 1 974.75 20.001 A 24.213 24.213 0 0 1 967.483 37.516 A 30.816 30.816 0 0 1 967.25 37.751 A 25.552 25.552 0 0 1 958.575 43.576 A 24.419 24.419 0 0 1 949.5 45.251 Z"
      id="7" />
    <path
      d="M 1100.25 140.001 L 1013.75 140.001 A 34.481 34.481 0 0 0 1016.16 148.247 A 29.539 29.539 0 0 0 1018.875 153.126 Q 1022.75 158.751 1028.875 161.876 A 28.684 28.684 0 0 0 1038.919 164.8 A 35.619 35.619 0 0 0 1042.75 165.001 A 39.027 39.027 0 0 0 1052.655 163.774 A 35.095 35.095 0 0 0 1056.25 162.626 Q 1062.5 160.251 1067 155.501 L 1088.75 180.001 Q 1076.5 189.001 1064.5 193.001 Q 1052.5 197.001 1038.5 197.001 A 73.595 73.595 0 0 1 1020.238 194.814 A 61.536 61.536 0 0 1 1006 189.251 Q 991.75 181.501 983.625 167.626 A 59.515 59.515 0 0 1 975.786 142.521 A 73.129 73.129 0 0 1 975.5 136.001 Q 975.5 121.251 981 108.126 Q 986.5 95.001 996.125 84.876 Q 1005.75 74.751 1018.5 69.001 Q 1031.25 63.251 1045.5 63.251 A 65.445 65.445 0 0 1 1061.212 65.062 A 52.559 52.559 0 0 1 1074.875 70.501 Q 1087.5 77.751 1094.625 90.751 A 57.397 57.397 0 0 1 1100.983 110.139 A 74.429 74.429 0 0 1 1101.75 121.001 A 151.867 151.867 0 0 1 1101.658 126.43 Q 1101.565 129.025 1101.378 131.34 A 95.862 95.862 0 0 1 1101.375 131.376 A 89.924 89.924 0 0 1 1100.76 136.914 A 73.814 73.814 0 0 1 1100.25 140.001 Z M 1016.25 117.251 L 1066.75 117.251 A 35.183 35.183 0 0 0 1065.407 111.344 A 25.758 25.758 0 0 0 1062.625 105.376 Q 1059.5 100.501 1054.625 97.751 A 21.159 21.159 0 0 0 1047.201 95.277 A 27.449 27.449 0 0 0 1043.25 95.001 Q 1037.25 95.001 1032 97.751 A 28.641 28.641 0 0 0 1023.77 104.287 A 33.487 33.487 0 0 0 1022.75 105.501 Q 1018.75 110.501 1016.25 117.251 Z"
      id="8" />
  </g>
</svg>