<svg xmlns="http://www.w3.org/2000/svg" width="191.999" height="108.316" viewBox="0 0 191.999 108.316">
  <g id="Group_6249" data-name="Group 6249" transform="translate(21765.503 23990.196)">
    <path id="Path_119" data-name="Path 119" d="M72.572,103.92,68.089,118.9,63.457,103.92H50.737l-5.787,31.8H55.973l2.512-18.274,5.925,18.274h7.43l5.989-17.881,2.056,17.881H91.037l-5.8-31.8Z" transform="translate(-21804.719 -24018.373)" fill="#fff"/>
    <path id="Path_120" data-name="Path 120" d="M105.209,103.23c-12.041,0-15.645,7.547-15.984,13.843a50.793,50.793,0,0,0,0,5.681c.392,6.254,4,13.779,15.984,13.779s15.592-7.483,15.984-13.843a48.917,48.917,0,0,0,0-5.575C120.853,110.777,117.419,103.23,105.209,103.23Zm4.982,18.835c-.106,2.809-1.4,5.226-5,5.226s-4.9-2.417-5.014-5.226v-4.388c.117-2.872,1.3-5.3,5.014-5.3s4.9,2.417,5,5.3A37.877,37.877,0,0,1,110.19,122.065Z" transform="translate(-21802.068 -24018.414)" fill="#fff"/>
    <path id="Path_121" data-name="Path 121" d="M145.994,119.12c2.766-1,4.431-3,4.431-6.815,0-5.3-3.381-8.384-10.917-8.384H122.23v31.8h17.108c5.575,0,8.48-1.579,10.133-3.551a7.907,7.907,0,0,0,1.961-5.512,7.419,7.419,0,0,0-1.8-5.459,8.6,8.6,0,0,0-3.636-2.077Zm-13.408-8.056h4.1c2.194,0,3.381.509,3.381,2.65s-1.187,2.7-3.381,2.7h-4.1Zm4.78,17.51h-4.78V122.49h4.78c2.12,0,3.381.562,3.381,2.989S139.454,128.574,137.366,128.574Z" transform="translate(-21800.086 -24018.373)" fill="#fff"/>
    <rect id="Rectangle_14" data-name="Rectangle 14" width="10.97" height="31.798" transform="translate(-21645.951 -23914.453)" fill="#fff"/>
    <path id="Path_122" data-name="Path 122" d="M177.45,103.92H166.48v31.8h21.835l2.862-9.338H177.45Z" transform="translate(-21797.434 -24018.373)" fill="#fff"/>
    <path id="Path_123" data-name="Path 123" d="M201.679,123.444h9.063l2.247-7.314h-11.31v-3.593h12.433l2.6-8.617H191.27v31.8h22.789l2.65-8.607h-15.03Z" transform="translate(-21795.947 -24018.373)" fill="#fff"/>
    <path id="Path_124" data-name="Path 124" d="M39.54,32.46V98.474H228.222l3.318-10.207V32.46Z" transform="translate(-21805.043 -24022.656)" fill="#fff"/>
    <path id="Path_125" data-name="Path 125" d="M153.924,38.611H157.5v.869h-1.261v2.3h-1.06v-2.3h-1.219ZM82.091,77.182H64.305V91.6H46v-53H89.1L86.278,54.192H64.305V62.9H84.688ZM142.922,91.6l-3.455-29.891L129.513,91.6h-12.4l-9.889-30.315L103.057,91.6H84.688l9.646-53h21.2l7.685,24.909,7.42-24.909h21.125l9.646,53ZM162.669,41.78h-1.06v-1.7a3.827,3.827,0,0,1,.064-.668h0a5.49,5.49,0,0,1-.212.636l-.689,1.781h-1.06l-.647-1.781c-.085-.244-.159-.477-.2-.636h0a3.552,3.552,0,0,1,.053.668v1.7h-1V38.6h1.7l.562,1.611a1.759,1.759,0,0,1,.117.392h0a2.015,2.015,0,0,1,.117-.4l.541-1.6h1.738Z" transform="translate(-21804.656 -24022.289)" fill="#190a28"/>
    <path id="Path_126" data-name="Path 126" d="M185.574,91.627H160.58V84.44l13.4-20.489c2.671-4.113,3.339-6.561,3.339-10.536V51.3c0-2.766-1.155-3.922-3.434-3.922s-3.434,1.155-3.434,3.922v7.42H160.58V51.5c0-8.7,3.89-13.387,13.3-13.387,8.925,0,13.26,4.685,13.26,13.387v1.654c0,5.173-.848,9.01-5,15.443l-8.66,13.387h15.231Z" transform="translate(-21797.787 -24022.318)" fill="#190a28"/>
    <path id="Path_127" data-name="Path 127" d="M183.328,87.055l.286-.89h-18.39L179,65.114c2.332-3.561,3.593-6.285,3.593-10.483V50.264c0-5.554-3.18-8.734-8.893-8.734-5.491,0-8.819,3.1-8.819,8.48V55.2h.88V50.02c0-2.841,1.187-7.6,7.939-7.6,5.236,0,8.013,2.777,8.013,7.844v4.367c0,3.954-1.2,6.54-3.413,9.921L164.09,86.323v.731Z" transform="translate(-21797.576 -24022.113)" fill="#fff"/>
    <path id="Path_128" data-name="Path 128" d="M214.913,91.627H189.93V84.44l13.387-20.489c2.682-4.113,3.349-6.561,3.349-10.536V51.3c0-2.766-1.166-3.922-3.445-3.922s-3.434,1.155-3.434,3.922v7.42H189.93V51.5c0-8.7,3.879-13.387,13.292-13.387,8.935,0,13.26,4.685,13.26,13.387v1.654c0,5.173-.848,9.01-5,15.443l-8.66,13.387H218.05Z" transform="translate(-21796.027 -24022.318)" fill="#190a28"/>
    <path id="Path_129" data-name="Path 129" d="M212.668,87.055l.286-.89h-18.38l13.779-21.051c2.321-3.561,3.583-6.285,3.583-10.483V50.264c0-5.554-3.18-8.734-8.893-8.734-5.491,0-8.819,3.1-8.819,8.48V55.2h.869V50.02c0-2.841,1.187-7.6,7.939-7.6,5.236,0,8.013,2.777,8.013,7.844v4.367c0,3.954-1.2,6.54-3.413,9.921l-14.2,21.771v.731Z" transform="translate(-21795.816 -24022.113)" fill="#fff"/>
  </g>
</svg>
