<svg xmlns="http://www.w3.org/2000/svg" xmlns:xlink="http://www.w3.org/1999/xlink" width="393.48" height="121" viewBox="0 0 393.48 121">
  <defs>
    <clipPath id="clip-path">
      <rect id="Rectangle_3263" data-name="Rectangle 3263" width="393" height="100" transform="translate(-3013 -19698)" fill="#fff" stroke="#707070" stroke-width="1"/>
    </clipPath>
    <linearGradient id="linear-gradient" x1="0.848" y1="0.866" x2="0.969" y2="0.056" gradientUnits="objectBoundingBox">
      <stop offset="0" stop-color="#321450"/>
      <stop offset="1" stop-color="#190a28"/>
    </linearGradient>
  </defs>
  <g id="Group_5937" data-name="Group 5937" transform="translate(13457.48 19972)">
    <rect id="Rectangle_3798" data-name="Rectangle 3798" width="393" height="94" transform="translate(-13457 -19945)" fill="#190a28"/>
    <g id="Mask_Group_193" data-name="Mask Group 193" transform="translate(-10444.48 -274)" clip-path="url(#clip-path)">
      <g id="Group_4536" data-name="Group 4536" transform="translate(-3013.196 -19790.014)">
        <path id="Union_70" data-name="Union 70" d="M476.675,300.695,62.8,0h62.732L534.568,297.178v3.517Zm-94.354,0L0,22.921V0H31.184L445.055,300.695Zm-94.352,0L0,91.473V45.9l350.7,254.8Zm-94.354,0L0,160.024V114.447L256.349,300.695Zm-94.352,0L0,228.575V183l162,117.7Zm-94.354,0L0,297.127V251.55l67.644,49.145ZM157.157,0H219.89L534.568,228.627v45.578ZM251.51,0h62.732L534.568,160.075v45.579Zm94.352,0H408.6L534.568,91.524V137.1Zm94.354,0h62.733l31.62,22.973V68.551Z" fill="url(#linear-gradient)"/>
      </g>
    </g>
  </g>
</svg>
