<svg xmlns="http://www.w3.org/2000/svg" xmlns:xlink="http://www.w3.org/1999/xlink" width="105.1714" height="25.97712" viewBox="0 0 105.1714 25.97712">
  <defs>
    <style>
      .cls-1, .cls-8, .cls-9 {
        fill: #fff;
      }

      .cls-2 {
        fill: url(#linear-gradient);
      }

      .cls-3 {
        fill: url(#linear-gradient-2);
      }

      .cls-4 {
        fill: url(#linear-gradient-3);
      }

      .cls-5 {
        fill: url(#linear-gradient-4);
      }

      .cls-6, .cls-7, .cls-8 {
        isolation: isolate;
      }

      .cls-6 {
        opacity: 0.2;
      }

      .cls-7 {
        opacity: 0.12;
      }

      .cls-8 {
        opacity: 0.25;
      }

      .cls-9 {
        stroke: #fff;
        stroke-miterlimit: 10;
        stroke-width: 0.2px;
      }
    </style>
    <linearGradient id="linear-gradient" x1="11.82714" y1="26.14981" x2="-4.95527" y2="9.36741" gradientTransform="matrix(1, 0, 0, -1, 0, 27.71905)" gradientUnits="userSpaceOnUse">
      <stop offset="0" stop-color="#00a0ff"/>
      <stop offset="0.00657" stop-color="#00a1ff"/>
      <stop offset="0.2601" stop-color="#00beff"/>
      <stop offset="0.5122" stop-color="#00d2ff"/>
      <stop offset="0.7604" stop-color="#00dfff"/>
      <stop offset="1" stop-color="#00e3ff"/>
    </linearGradient>
    <linearGradient id="linear-gradient-2" x1="23.86178" y1="14.85807" x2="-0.33512" y2="14.85807" gradientTransform="matrix(1, 0, 0, -1, 0, 27.71905)" gradientUnits="userSpaceOnUse">
      <stop offset="0" stop-color="#ffe000"/>
      <stop offset="0.4087" stop-color="#ffbd00"/>
      <stop offset="0.7754" stop-color="orange"/>
      <stop offset="1" stop-color="#ff9c00"/>
    </linearGradient>
    <linearGradient id="linear-gradient-3" x1="14.85435" y1="12.56343" x2="-7.90393" y2="-10.19485" gradientTransform="matrix(1, 0, 0, -1, 0, 27.71905)" gradientUnits="userSpaceOnUse">
      <stop offset="0" stop-color="#ff3a44"/>
      <stop offset="1" stop-color="#c31162"/>
    </linearGradient>
    <linearGradient id="linear-gradient-4" x1="-2.67527" y1="34.68335" x2="7.48725" y2="24.52082" gradientTransform="matrix(1, 0, 0, -1, 0, 27.71905)" gradientUnits="userSpaceOnUse">
      <stop offset="0" stop-color="#32a071"/>
      <stop offset="0.0685" stop-color="#2da771"/>
      <stop offset="0.4762" stop-color="#15cf74"/>
      <stop offset="0.8009" stop-color="#06e775"/>
      <stop offset="1" stop-color="#00f076"/>
    </linearGradient>
  </defs>
  <g id="Layer_3" data-name="Layer 3">
    <g>
      <path class="cls-1" d="M54.752,5.64972a3.66435,3.66435,0,0,0-3.7318,3.7176,3.73178,3.73178,0,0,0,7.4635,0A3.66439,3.66439,0,0,0,54.752,5.64972Zm0,5.9707a2.15075,2.15075,0,0,1-2.0983-2.2531,2.10352,2.10352,0,1,1,4.1964,0A2.15066,2.15066,0,0,1,54.752,11.62042Zm-8.1408-5.9707a3.66433,3.66433,0,0,0-3.7317,3.7176,3.73173,3.73173,0,0,0,7.4634,0A3.66433,3.66433,0,0,0,46.6112,5.64972Zm0,5.9707a2.15068,2.15068,0,0,1-2.0982-2.2531,2.10352,2.10352,0,1,1,4.1964,0A2.15068,2.15068,0,0,1,46.6112,11.62042Zm-9.6838-4.8301v1.5772h3.774a3.291,3.291,0,0,1-.8591,1.9855,3.86348,3.86348,0,0,1-2.9149,1.1548,4.14134,4.14134,0,0,1-4.1401-4.1965,4.14125,4.14125,0,0,1,4.1401-4.1964,4.02225,4.02225,0,0,1,2.8446,1.1265L40.8844,3.129a5.5014,5.5014,0,0,0-3.957-1.5913,5.85441,5.85441,0,0,0-5.8582,5.7736,5.85435,5.85435,0,0,0,5.8582,5.7736,5.27837,5.27837,0,0,0,4.0274-1.6194,5.21118,5.21118,0,0,0,1.366-3.6894,5.13811,5.13811,0,0,0-.0846-.9858Zm39.6035,1.2251a3.45519,3.45519,0,0,0-3.1825-2.3657,3.533,3.533,0,0,0-3.5064,3.7176,3.63793,3.63793,0,0,0,3.6894,3.7176,3.69769,3.69769,0,0,0,3.098-1.6476l-1.2673-.8449a2.12309,2.12309,0,0,1-1.8307,1.028,1.891,1.891,0,0,1-1.8025-1.1265l4.971-2.056Zm-5.0695,1.2392A2.03909,2.03909,0,0,1,73.4047,7.086a1.43956,1.43956,0,0,1,1.38.7886Zm-4.0416,3.605h1.6335V1.932H67.4198Zm-2.6756-6.3791h-.0563a2.57579,2.57579,0,0,0-1.9574-.8308,3.721,3.721,0,0,0,0,7.4352,2.53444,2.53444,0,0,0,1.9574-.8449h.0563v.5351c0,1.4223-.7604,2.1827-1.9855,2.1827a2.057,2.057,0,0,1-1.8729-1.3236l-1.4223.5914a3.543,3.543,0,0,0,3.2952,2.1968c1.9152,0,3.5346-1.1266,3.5346-3.8725v-6.675H64.7442Zm-1.8728,5.1399a2.13341,2.13341,0,0,1-2.0701-2.239,2.15024,2.15024,0,0,1,2.0701-2.2672,2.095,2.095,0,0,1,1.9855,2.2672A2.07753,2.07753,0,0,1,62.8714,11.62042Zm21.3112-9.6882H80.2744v10.9274h1.6307v-4.14h2.2775a3.46248,3.46248,0,0,0,3.5848-3.3937A3.46248,3.46248,0,0,0,84.1826,1.93222Zm.0421,5.2666H81.9051V3.45312h2.3196a1.87325,1.87325,0,1,1,0,3.7457Zm10.0798-1.5693a3.06227,3.06227,0,0,0-2.9101,1.673l1.448.6045a1.54545,1.54545,0,0,1,1.4902-.8013,1.57034,1.57034,0,0,1,1.7151,1.4058v.1124a3.60813,3.60813,0,0,0-1.7011-.4217c-1.5604,0-3.149.8575-3.149,2.4602a2.52444,2.52444,0,0,0,2.7132,2.4039,2.3008,2.3008,0,0,0,2.0807-1.0684h.0562v.8435h1.5745V8.65212C97.6222,6.712,96.1742,5.62952,94.3045,5.62952Zm-.1968,5.9888c-.5343,0-1.2793-.2671-1.2793-.9278,0-.8435.9278-1.1668,1.7291-1.1668a2.905,2.905,0,0,1,1.4902.3655A1.97711,1.97711,0,0,1,94.1077,11.61832Zm9.2502-5.7498-1.8697,4.7376h-.0562l-1.9401-4.7376H97.7347l2.91,6.6214-1.6589,3.6833h1.7011l4.4845-10.3047Zm-14.6908,6.9911h1.6308V1.93222H88.6671Z"/>
      <g>
        <path class="cls-2" d="M.4628.39752A2.00244,2.00244,0,0,0,0,1.80242v22.1161a2.00157,2.00157,0,0,0,.4628,1.4049l.074.0721,12.389-12.3889v-.2923L.5368.32492Z"/>
        <path class="cls-3" d="M17.0552,17.138l-4.1294-4.1314v-.2923l4.1304-4.1304.0931.0531,4.8928,2.7801c1.3976.794,1.3976,2.0932,0,2.8877l-4.8928,2.7801Z"/>
        <path class="cls-4" d="M17.1493,17.08442l-4.2235-4.2239L.4628,25.32342a1.62671,1.62671,0,0,0,2.0781.0614l14.6084-8.3004"/>
        <path class="cls-5" d="M17.1493,8.63652,2.5409.33612A1.62671,1.62671,0,0,0,.4628.39752l12.463,12.463Z"/>
        <g>
          <path class="cls-6" d="M17.0562,16.99142,2.5409,25.23872a1.66561,1.66561,0,0,1-2.0036.0107h0l-.0745.0745h0l.074.0721.0005-.0005a1.66486,1.66486,0,0,0,2.0036-.0107l14.6084-8.3004Z"/>
          <path class="cls-7" d="M.4628,25.17782A2.00279,2.00279,0,0,1,0,23.77292v.1461a2.00261,2.00261,0,0,0,.4628,1.4049l.0745-.0745Z"/>
        </g>
        <path class="cls-7" d="M22.0421,14.15822l-4.9859,2.8332.0931.093,4.8928-2.7801a1.7548,1.7548,0,0,0,1.0483-1.4434h0A1.86229,1.86229,0,0,1,22.0421,14.15822Z"/>
        <path class="cls-8" d="M2.5409.48272l19.5012,11.08a1.86129,1.86129,0,0,1,1.0483,1.2978h0a1.75365,1.75365,0,0,0-1.0483-1.4439L2.5409.33662C1.1433-.45748,0,.20212,0,1.80292V1.949C0,.34832,1.1433-.31128,2.5409.48272Z"/>
      </g>
      <g>
        <path class="cls-9" d="M31.8438,21.713h-.7139v-1.9219h.7139Z"/>
        <path class="cls-9" d="M33.1153,25.87712v-6.086h1.8613a3.028,3.028,0,0,1,2.2442.8457,2.98426,2.98426,0,0,1,.8408,2.1973,2.98111,2.98111,0,0,1-.8408,2.1973,3.02411,3.02411,0,0,1-2.2442.8457Zm.7812-.7481h1.0801a2.28045,2.28045,0,0,0,1.6699-.6035,2.25733,2.25733,0,0,0,.6163-1.6914,2.11719,2.11719,0,0,0-2.2862-2.2949H33.8965Z"/>
        <path class="cls-9" d="M42.7022,20.53922H39.9307v1.9297h2.499v.7314h-2.499V25.129h2.7715v.7481H39.1495v-6.086h3.5527Z"/>
        <path class="cls-9" d="M43.8174,25.87712v-6.086h.9522l2.958,4.7344h.0332l-.0332-1.1719v-3.5625h.7812v6.086h-.8154l-3.0947-4.9639h-.0332l.0332,1.1729v3.791Z"/>
        <path class="cls-9" d="M51.0928,25.87712l2.2959-6.086h.8838l2.2949,6.086h-.8671l-.587-1.6485H52.5557l-.5957,1.6485Zm1.7256-2.3789h2.0235l-.9942-2.7461h-.0342Z"/>
        <path class="cls-9" d="M57.3614,25.87712v-6.086h.7812V25.129h2.6358v.7481Z"/>
        <path class="cls-9" d="M61.6299,25.87712v-6.086h.7813v6.086Z"/>
        <path class="cls-9" d="M63.8087,25.87712v-6.086h.9521l2.958,4.7344h.0332l-.0332-1.1719v-3.5625h.7813v6.086h-.8155l-3.0947-4.9639h-.0332l.0332,1.1729v3.791Z"/>
      </g>
    </g>
  </g>
</svg>
