<svg id="livetype" xmlns="http://www.w3.org/2000/svg" width="131.06604" height="23.43604" viewBox="0 0 131.06604 23.43604">
  <defs>
    <style>
      .cls-1 {
        fill: #fff;
      }
    </style>
  </defs>
  <g>
    <g id="_Group_" data-name="&lt;Group&gt;">
      <g id="_Group_2" data-name="&lt;Group&gt;">
        <path id="_Path_" data-name="&lt;Path&gt;" class="cls-1" d="M14.7973,12.09218a4.94879,4.94879,0,0,1,2.35656-4.15206A5.06569,5.06569,0,0,0,13.1627,5.78244c-1.67925-.17626-3.30719,1.00484-4.16291,1.00484-.87226,0-2.18977-.98734-3.6085-.95815A5.31531,5.31531,0,0,0,.91837,8.557c-1.93395,3.34842-.4914,8.26947,1.3612,10.97608.9269,1.32535,2.01018,2.8058,3.42763,2.7533,1.38707-.05753,1.9051-.88448,3.5794-.88448,1.65875,0,2.14478.88448,3.591.85111,1.48838-.02416,2.42613-1.33124,3.32051-2.66914a10.96217,10.96217,0,0,0,1.51843-3.09252A4.782,4.782,0,0,1,14.7973,12.09218Z"/>
        <path id="_Path_2" data-name="&lt;Path&gt;" class="cls-1" d="M12.06568,4.00239A4.87248,4.87248,0,0,0,13.18019.51177,4.95742,4.95742,0,0,0,9.97262,2.17138,4.63632,4.63632,0,0,0,8.82891,5.53277,4.099,4.099,0,0,0,12.06568,4.00239Z"/>
      </g>
    </g>
    <g id="_Group_3" data-name="&lt;Group&gt;">
      <g>
        <path class="cls-1" d="M25.60852,16.27441a.55432.55432,0,1,1,.55469.56592A.55224.55224,0,0,1,25.60852,16.27441Zm.09082,7.08741V17.395h.92676v5.9668Z"/>
        <path class="cls-1" d="M28.14172,18.85889h.85547v.71484h.06641a1.34835,1.34835,0,0,1,1.34375-.80176,1.46456,1.46456,0,0,1,1.55859,1.67481v2.915h-.88867V20.66943c0-.72363-.31445-1.083-.97168-1.083A1.03277,1.03277,0,0,0,29.0304,20.727v2.63477h-.88868Z"/>
        <path class="cls-1" d="M33.11731,21.10791c0-1.42285.73144-2.32422,1.86914-2.32422a1.48484,1.48484,0,0,1,1.38086.79h.06641V17.10107h.88867v6.26075h-.85157V22.6499h-.07031a1.56322,1.56322,0,0,1-1.41406.78614C33.84094,23.436,33.11731,22.53467,33.11731,21.10791Zm.918,0c0,.95508.45019,1.53027,1.20312,1.53027.749,0,1.21192-.583,1.21192-1.52636,0-.93848-.46778-1.5293-1.21192-1.5293C34.49036,19.58252,34.03528,20.16064,34.03528,21.10791Z"/>
        <path class="cls-1" d="M38.66418,17.52686a.5757.5757,0,1,1,.5752.542A.54735.54735,0,0,1,38.66418,17.52686Zm.13184,1.332h.88574v4.50293H38.796Z"/>
        <path class="cls-1" d="M41.11536,18.85889h.85546v.69043h.06641a1.22126,1.22126,0,0,1,1.21582-.76563,1.90119,1.90119,0,0,1,.39649.03711v.877a2.47013,2.47013,0,0,0-.4961-.05371,1.05507,1.05507,0,0,0-1.14941,1.0586v2.65918h-.88867Z"/>
        <path class="cls-1" d="M44.58215,17.52686a.5757.5757,0,1,1,.5752.542A.54735.54735,0,0,1,44.58215,17.52686Zm.13184,1.332h.88574v4.50293H44.714Z"/>
        <path class="cls-1" d="M47.03332,18.85889h.85547v.71484h.06641A1.34836,1.34836,0,0,1,49.299,18.772a1.46456,1.46456,0,0,1,1.55859,1.67481v2.915h-.88867V20.66943c0-.72363-.31445-1.083-.97168-1.083A1.03278,1.03278,0,0,0,47.922,20.727v2.63477h-.88868Z"/>
      </g>
    </g>
    <g>
      <path class="cls-1" d="M32.33313,9.26855h-4.7334L26.463,12.625H24.45813L28.94153.207h2.083l4.48339,12.418H33.46887ZM28.09,7.71973h3.75195L29.99231,2.27246h-.05176Z"/>
      <path class="cls-1" d="M45.19055,8.09863c0,2.81348-1.50586,4.6211-3.77832,4.6211a3.0693,3.0693,0,0,1-2.84863-1.584h-.043v4.48438h-1.8584V3.57129h1.79883V5.07715h.03418a3.21161,3.21161,0,0,1,2.88281-1.60059C43.6759,3.47656,45.19055,5.293,45.19055,8.09863Zm-1.91015,0c0-1.833-.94727-3.03808-2.39258-3.03808-1.41992,0-2.375,1.23047-2.375,3.03808,0,1.82422.95508,3.0459,2.375,3.0459C42.33313,11.14453,43.2804,9.94824,43.2804,8.09863Z"/>
      <path class="cls-1" d="M55.15491,8.09863c0,2.81348-1.50537,4.6211-3.77784,4.6211a3.06931,3.06931,0,0,1-2.84863-1.584h-.043v4.48438h-1.8584V3.57129H48.4259V5.07715h.03418A3.21163,3.21163,0,0,1,51.3429,3.47656C53.64075,3.47656,55.15491,5.293,55.15491,8.09863Zm-1.90967,0c0-1.833-.94727-3.03808-2.39258-3.03808-1.41992,0-2.375,1.23047-2.375,3.03808,0,1.82422.95508,3.0459,2.375,3.0459C52.298,11.14453,53.24524,9.94824,53.24524,8.09863Z"/>
      <path class="cls-1" d="M61.74084,9.165c.1377,1.23144,1.334,2.04,2.96875,2.04,1.56641,0,2.69336-.8086,2.69336-1.919,0-.96386-.67968-1.541-2.28906-1.93652l-1.60937-.3877c-2.28028-.55078-3.33887-1.61718-3.33887-3.34765C60.16565,1.47168,62.03284,0,64.6842,0c2.624,0,4.42286,1.47168,4.4834,3.61426h-1.876c-.11231-1.23926-1.13672-1.98731-2.63379-1.98731s-2.52149.75684-2.52149,1.8584c0,.87793.6543,1.39453,2.25488,1.79l1.36817.33594c2.54785.60254,3.60644,1.626,3.60644,3.44238,0,2.32324-1.85058,3.77832-4.79394,3.77832-2.75391,0-4.61328-1.4209-4.7334-3.667Z"/>
      <path class="cls-1" d="M73.37659,1.42871V3.57129h1.72168V5.043H73.37659v4.99121c0,.77539.34472,1.13672,1.10156,1.13672a5.80807,5.80807,0,0,0,.61133-.043v1.46289a5.10337,5.10337,0,0,1-1.03223.08594c-1.833,0-2.54785-.68848-2.54785-2.44434V5.043H70.193V3.57129H71.5094V1.42871Z"/>
      <path class="cls-1" d="M76.09534,8.09863C76.09534,5.25,77.77307,3.46,80.38928,3.46c2.625,0,4.29492,1.79,4.29492,4.63867,0,2.85645-1.66113,4.63867-4.29492,4.63867C77.75647,12.7373,76.09534,10.95508,76.09534,8.09863Zm6.69531,0c0-1.9541-.89551-3.10742-2.40137-3.10742s-2.40039,1.16211-2.40039,3.10742c0,1.96192.89453,3.10645,2.40039,3.10645S82.79065,10.06055,82.79065,8.09863Z"/>
      <path class="cls-1" d="M86.21642,3.57129h1.77247v1.541h.043a2.1594,2.1594,0,0,1,2.17773-1.63574,2.866,2.866,0,0,1,.63672.06934V5.28418a2.59784,2.59784,0,0,0-.835-.1123,1.87264,1.87264,0,0,0-1.93652,2.083V12.625H86.21642Z"/>
      <path class="cls-1" d="M99.41467,9.96582c-.25,1.64356-1.85058,2.77148-3.89844,2.77148-2.63378,0-4.26855-1.76464-4.26855-4.5957,0-2.83984,1.64355-4.68164,4.19043-4.68164,2.50488,0,4.08008,1.7207,4.08008,4.46582V8.5625H93.12366v.1123a2.358,2.358,0,0,0,2.43554,2.56446A2.04835,2.04835,0,0,0,97.65,9.96582ZM93.13245,7.26367h4.52636a2.1773,2.1773,0,0,0-2.2207-2.29785A2.292,2.292,0,0,0,93.13245,7.26367Z"/>
      <path class="cls-1" d="M100.76623,4.751,101.78186.207h1.80664L102.358,4.751Z"/>
      <path class="cls-1" d="M103.50745,8.09863c0-2.79687,1.54-4.62207,3.78613-4.62207a3.05411,3.05411,0,0,1,2.83984,1.60059h.03516V.207h1.86719V12.625h-1.80762v-1.54H110.194a3.08787,3.08787,0,0,1-2.88281,1.63477C105.04748,12.71973,103.50745,10.89551,103.50745,8.09863Zm1.90136,0c0,1.8584.94727,3.0459,2.39258,3.0459,1.42871,0,2.38379-1.20508,2.38379-3.0459,0-1.82519-.95508-3.03808-2.38379-3.03808C106.35608,5.06055,105.40881,6.25684,105.40881,8.09863Z"/>
      <path class="cls-1" d="M113.67346,10.05176c0-1.583,1.21289-2.53906,3.36426-2.668l2.47851-.1377V6.55762c0-1.00684-.6621-1.5752-1.78906-1.5752a1.7308,1.7308,0,0,0-1.90234,1.27442h-1.73828C114.13831,4.62109,115.66077,3.46,117.778,3.46c2.16016,0,3.58887,1.17871,3.58887,2.96V12.625h-1.78125V11.13574h-.043a3.23682,3.23682,0,0,1-2.85742,1.64453A2.74447,2.74447,0,0,1,113.67346,10.05176Zm5.84277-.81738V8.53711l-2.22851.13769c-1.11035.06934-1.73828.55079-1.73828,1.3252,0,.792.65429,1.30859,1.65234,1.30859A2.16957,2.16957,0,0,0,119.51623,9.23438Z"/>
      <path class="cls-1" d="M123.26038,3.57129h1.77246v1.541h.043a2.89318,2.89318,0,0,1,2.84863-1.64355c1.99707,0,3.1416,1.28223,3.1416,3.35547V12.625h-1.86719V7.18555c0-1.35938-.6289-2.11621-1.93652-2.11621a2.10392,2.10392,0,0,0-2.14356,2.34082V12.625h-1.85839Z"/>
    </g>
  </g>
</svg>
