<svg width="759.3" height="236.403" viewBox="0 0 759.3 236.403" xmlns="http://www.w3.org/2000/svg">
  <g id="svgGroup" stroke-linecap="round" fill-rule="evenodd" font-size="9pt" stroke="#ed1065" stroke-width="0.25mm"
    fill="#ffffff" style="stroke:#ed1065;stroke-width:0.25mm;fill:#ffffff">
    <path
      d="M 53.7 233.102 L 6 233.102 L 30 115.802 L 0 115.802 L 8.4 78.302 L 37.5 78.302 L 42.6 53.402 A 84.25 84.25 0 0 1 48.724 35.311 A 59.642 59.642 0 0 1 64.95 14.402 Q 81.6 0.902 107.1 0.902 A 117.045 117.045 0 0 1 119.075 1.54 A 138.683 138.683 0 0 1 124.8 2.252 A 84.856 84.856 0 0 1 129.925 3.146 Q 134.885 4.181 138.1 5.623 A 21.128 21.128 0 0 1 138.9 6.002 L 130.5 45.902 A 78.658 78.658 0 0 0 119.364 43.327 A 61.539 61.539 0 0 0 110.1 42.602 A 32.692 32.692 0 0 0 104.551 43.044 Q 99.649 43.889 96.3 46.352 A 15.593 15.593 0 0 0 91.342 52.597 Q 90.333 54.814 89.773 57.536 A 28.92 28.92 0 0 0 89.7 57.902 L 85.5 78.302 L 125.4 78.302 L 117 115.802 L 77.7 115.802 L 53.7 233.102 Z"
      id="0" fill="#ed1065" />
    <path
      d="M 189 233.102 L 141.3 233.102 L 165.3 115.802 L 135.3 115.802 L 143.7 78.302 L 172.8 78.302 L 177.9 53.402 A 84.25 84.25 0 0 1 184.024 35.311 A 59.642 59.642 0 0 1 200.25 14.402 Q 216.9 0.902 242.4 0.902 A 117.045 117.045 0 0 1 254.375 1.54 A 138.683 138.683 0 0 1 260.1 2.252 A 84.856 84.856 0 0 1 265.225 3.146 Q 270.185 4.181 273.4 5.623 A 21.128 21.128 0 0 1 274.2 6.002 L 265.8 45.902 A 78.658 78.658 0 0 0 254.664 43.327 A 61.539 61.539 0 0 0 245.4 42.602 A 32.692 32.692 0 0 0 239.851 43.044 Q 234.949 43.889 231.6 46.352 A 15.593 15.593 0 0 0 226.642 52.597 Q 225.633 54.814 225.073 57.536 A 28.92 28.92 0 0 0 225 57.902 L 220.8 78.302 L 260.7 78.302 L 252.3 115.802 L 213 115.802 L 189 233.102 Z"
      id="1" fill="#ed1065" />
    <path d="M 302.1 233.102 L 254.4 233.102 L 300 19.502 L 348.9 12.002 L 302.1 233.102 Z" id="2" />
    <path
      d="M 387 233.102 L 339.3 233.102 L 372.9 78.302 L 420.6 78.302 L 387 233.102 Z M 393.359 52.667 A 25.373 25.373 0 0 0 402.6 54.302 A 29.303 29.303 0 0 0 413.49 52.291 A 30.662 30.662 0 0 0 423.9 45.302 A 36.98 36.98 0 0 0 424.179 45.02 A 29.056 29.056 0 0 0 432.9 24.002 A 29.183 29.183 0 0 0 432.896 23.525 A 22.898 22.898 0 0 0 425.85 6.902 Q 418.8 0.002 408.6 0.002 Q 400.8 0.002 393.9 4.202 Q 387 8.402 382.8 15.452 Q 378.6 22.502 378.6 30.602 A 29.686 29.686 0 0 0 378.607 31.236 A 22.611 22.611 0 0 0 385.5 47.552 A 23.097 23.097 0 0 0 393.359 52.667 Z"
      id="3" />
    <path
      d="M 515.4 233.102 L 469.2 233.102 L 441.3 78.302 L 491.4 78.302 L 504.9 176.402 L 560.4 78.302 L 611.1 78.302 L 515.4 233.102 Z"
      id="4" />
    <path
      d="M 757.5 168.002 L 653.7 168.002 A 41.378 41.378 0 0 0 656.592 177.896 A 35.446 35.446 0 0 0 659.85 183.752 Q 664.5 190.502 671.85 194.252 A 34.421 34.421 0 0 0 683.903 197.76 A 42.743 42.743 0 0 0 688.5 198.002 A 46.833 46.833 0 0 0 700.386 196.529 A 42.114 42.114 0 0 0 704.7 195.152 Q 712.2 192.302 717.6 186.602 L 743.7 216.002 Q 729 226.802 714.6 231.602 Q 700.2 236.402 683.4 236.402 A 88.314 88.314 0 0 1 661.486 233.777 A 73.843 73.843 0 0 1 644.4 227.102 Q 627.3 217.802 617.55 201.152 Q 607.8 184.502 607.8 163.202 Q 607.8 145.502 614.4 129.752 Q 621 114.002 632.55 101.852 Q 644.1 89.702 659.4 82.802 Q 674.7 75.902 691.8 75.902 A 78.534 78.534 0 0 1 710.654 78.075 A 63.071 63.071 0 0 1 727.05 84.602 Q 742.2 93.302 750.75 108.902 A 68.876 68.876 0 0 1 758.379 132.166 A 89.314 89.314 0 0 1 759.3 145.202 A 182.24 182.24 0 0 1 759.189 151.716 Q 759.078 154.831 758.854 157.608 A 113.341 113.341 0 0 1 758.85 157.652 A 107.909 107.909 0 0 1 758.112 164.296 A 88.577 88.577 0 0 1 757.5 168.002 Z M 656.7 140.702 L 717.3 140.702 A 42.219 42.219 0 0 0 715.689 133.613 A 30.91 30.91 0 0 0 712.35 126.452 Q 708.6 120.602 702.75 117.302 Q 696.9 114.002 689.1 114.002 Q 681.9 114.002 675.6 117.302 Q 669.3 120.602 664.5 126.602 A 47.875 47.875 0 0 0 658.557 136.253 A 57.874 57.874 0 0 0 656.7 140.702 Z"
      id="5" />
  </g>
</svg>