<svg xmlns="http://www.w3.org/2000/svg" width="57.673" height="32.066" viewBox="0 0 57.673 32.066">
  <g id="Group_10233" data-name="Group 10233" transform="translate(0 32.066) rotate(-90)" opacity="0.996">
    <path id="Path_3094" data-name="Path 3094" d="M27.762,0H4.3A4.309,4.309,0,0,0,0,4.3V53.368a4.31,4.31,0,0,0,4.3,4.3H27.762a4.31,4.31,0,0,0,4.3-4.3V4.3A4.309,4.309,0,0,0,27.762,0Zm1.459,53.368a1.461,1.461,0,0,1-1.459,1.459H4.3a1.461,1.461,0,0,1-1.459-1.459V47.341H29.222Zm0-8.872H2.845V9.708H29.222Zm0-37.633H2.845V4.3A1.46,1.46,0,0,1,4.3,2.845H27.762A1.46,1.46,0,0,1,29.222,4.3Z" fill="#fff"/>
    <rect id="Rectangle_720" data-name="Rectangle 720" width="5.551" height="2.845" transform="translate(13.258 49.661)" fill="#fff"/>
  </g>
</svg>
