<svg xmlns="http://www.w3.org/2000/svg" width="52" height="52" viewBox="0 0 52 52">
  <g id="Group_4127" data-name="Group 4127" transform="translate(-934.445 -1797)">
    <circle id="Ellipse_65" data-name="Ellipse 65" cx="26" cy="26" r="26" transform="translate(934.445 1797)" fill="#fff"/>
    <g id="Group_1576" data-name="Group 1576" transform="translate(950.334 1808.555)">
      <path id="Path_3412" data-name="Path 3412" d="M1301.362-227.6l-10.212,12.545c-.4.491-.836.957-1.188,1.48a.978.978,0,0,1-1.343.369,3.243,3.243,0,0,1-2.036-3.189c-.023-2.093-.011-4.186-.011-6.278,0-5.232-.034-10.465.034-15.7a5.208,5.208,0,0,1,.771-2.527,3.67,3.67,0,0,1,1.68-1.054.95.95,0,0,1,.841.272C1293.717-237.02,1297.511-232.34,1301.362-227.6Z" transform="translate(-1286.563 241.977)" fill="#190a28"/>
      <path id="Path_3413" data-name="Path 3413" d="M1392.348-174.3l-3.983-4.9,3.9-4.8c1.25.736,2.519,1.388,3.686,2.19,2.077,1.428,2.158,3.741.157,5.217C1394.944-175.734,1393.634-175.076,1392.348-174.3Z" transform="translate(-1371.544 193.579)" fill="#190a28"/>
      <path id="Path_3414" data-name="Path 3414" d="M1323.03-135.45l9.78-12.014,3.611,4.434-13.283,7.674Z" transform="translate(-1317.004 163.081)" fill="#190a28"/>
      <path id="Path_3415" data-name="Path 3415" d="M1338.383-225.984l-3.53,4.332-9.382-11.542.136-.166Z" transform="translate(-1319.042 234.783)" fill="#190a28"/>
    </g>
  </g>
</svg>
