<svg xmlns="http://www.w3.org/2000/svg" xmlns:xlink="http://www.w3.org/1999/xlink" width="643.742" height="538.995" viewBox="0 0 643.742 538.995">
  <defs>
    <linearGradient id="linear-gradient" x1="0.28" y1="1.073" x2="0.707" y2="-0.04" gradientUnits="objectBoundingBox">
      <stop offset="0" stop-color="#641eaa"/>
      <stop offset="0.2" stop-color="#681ca9"/>
      <stop offset="0.408" stop-color="#7418a9"/>
      <stop offset="0.618" stop-color="#8912a8"/>
      <stop offset="0.83" stop-color="#a609a6"/>
      <stop offset="1" stop-color="#c300a5"/>
    </linearGradient>
    <clipPath id="clip-path">
      <path id="Path_8630" data-name="Path 8630" d="M1479.135,1472.653H1708.25l175.13-538.994H1479.135Z" transform="translate(-1479.135 -933.659)" fill="none"/>
    </clipPath>
    <clipPath id="clip-path-2">
      <path id="Path_8612" data-name="Path 8612" d="M1696.776,1472.653H1876.44l175.13-538.994H1871.906Z" transform="translate(-1696.776 -933.659)" fill="none"/>
    </clipPath>
  </defs>
  <g id="Group_6296" data-name="Group 6296" transform="translate(-2647.258 3787.341)">
    <g id="Group_6291" data-name="Group 6291" transform="translate(1168.123 -4720.999)">
      <path id="Path_8594" data-name="Path 8594" d="M1936.273,1472.653,2111.4,933.659h-239.5l-175.13,538.994h239.5Z" transform="translate(11.475 0)" fill="url(#linear-gradient)"/>
      <g id="Group_4997" data-name="Group 4997" transform="translate(1479.135 933.659)">
        <g id="Group_4996" data-name="Group 4996" clip-path="url(#clip-path)">
          <g id="Group_4995" data-name="Group 4995" transform="translate(-18.704 -236.828)">
            <path id="Path_8613" data-name="Path 8613" d="M2266.623,833.66l486.538,353.49v-50.731L2336.449,833.66Z" transform="translate(-1418.913 -702.103)" fill="none"/>
            <path id="Path_8614" data-name="Path 8614" d="M1746.135,833.66h-69.826l913.936,664.012h-138.53l-844.266-613.4v50.732l774.441,562.664h-138.53l-635.911-462.016v50.731l566.085,411.284H2035l-427.555-310.637v50.731l357.729,259.905h-138.53l-219.2-159.258v50.732l149.373,108.526h-138.53l-10.843-7.878v7.878H2660.07Z" transform="translate(-1453.666 -702.103)" fill="none"/>
            <path id="Path_8615" data-name="Path 8615" d="M2068.7,833.66,2763.6,1338.53V1287.8L2138.528,833.66Z" transform="translate(-1429.347 -702.103)" fill="none"/>
            <path id="Path_8616" data-name="Path 8616" d="M1870.781,833.66l903.249,656.249v-50.732L1940.607,833.66Z" transform="translate(-1439.782 -702.103)" fill="none"/>
            <path id="Path_8617" data-name="Path 8617" d="M2662.465,833.66l69.826,50.731V833.66Z" transform="translate(-1398.043 -702.103)" fill="none"/>
            <path id="Path_8618" data-name="Path 8618" d="M2464.544,833.66l278.182,202.111V985.04L2534.37,833.66Z" transform="translate(-1408.478 -702.103)" fill="none"/>
            <path id="Path_8619" data-name="Path 8619" d="M2625.386,708.692l262.641,190.82V772.641l-88.018-63.949Z" transform="translate(-1399.998 -708.692)"/>
            <path id="Path_8620" data-name="Path 8620" d="M2375.9,708.692l525.283,381.64V963.462l-350.66-254.77Z" transform="translate(-1413.151 -708.692)"/>
            <path id="Path_8621" data-name="Path 8621" d="M2126.41,708.692l787.924,572.46V1154.282h0l-613.3-445.589Z" transform="translate(-1426.305 -708.692)"/>
            <path id="Path_8622" data-name="Path 8622" d="M1876.922,708.692l1050.566,763.281V1345.1l-875.943-636.41Z" transform="translate(-1439.459 -708.692)"/>
            <path id="Path_8623" data-name="Path 8623" d="M1627.433,708.692l1152.056,837.016h161.153v-9.786L1802.057,708.692Z" transform="translate(-1452.612 -708.692)"/>
            <path id="Path_8624" data-name="Path 8624" d="M2700.226,1545.708,1548.17,708.692h-86.8V772.5L2525.6,1545.708Z" transform="translate(-1461.368 -708.692)"/>
            <path id="Path_8627" data-name="Path 8627" d="M2174.942,1529.754l-713.575-518.442v126.871l538.952,391.571Z" transform="translate(-1461.368 -692.737)"/>
            <path id="Path_8628" data-name="Path 8628" d="M2437.584,1539.31,1461.368,830.048V956.919l801.593,582.391Z" transform="translate(-1461.368 -702.294)"/>
          </g>
          <path id="Path_8629" data-name="Path 8629" d="M1696.776,1445.659" transform="translate(-1467.66 -906.665)" fill="none"/>
        </g>
      </g>
    </g>
    <g id="Group_6293" data-name="Group 6293" transform="translate(2868.373 -3787.341)">
      <g id="Group_4993" data-name="Group 4993" clip-path="url(#clip-path-2)">
        <g id="Group_4992" data-name="Group 4992" transform="translate(-247.819 -236.828)">
          <path id="Path_8595" data-name="Path 8595" d="M2266.623,833.66l486.538,353.49v-50.731L2336.449,833.66Z" transform="translate(-1418.913 -702.103)" fill="none"/>
          <path id="Path_8596" data-name="Path 8596" d="M1746.135,833.66h-69.826l913.936,664.012h-138.53l-844.266-613.4v50.732l774.441,562.664h-138.53l-635.911-462.016v50.731l566.085,411.284H2035l-427.555-310.637v50.731l357.729,259.905h-138.53l-219.2-159.258v50.732l149.373,108.526h-138.53l-10.843-7.878v7.878H2660.07Z" transform="translate(-1453.666 -702.103)" fill="none"/>
          <path id="Path_8597" data-name="Path 8597" d="M2068.7,833.66,2763.6,1338.53V1287.8L2138.528,833.66Z" transform="translate(-1429.347 -702.103)" fill="none"/>
          <path id="Path_8598" data-name="Path 8598" d="M1870.781,833.66l903.249,656.249v-50.732L1940.607,833.66Z" transform="translate(-1439.782 -702.103)" fill="none"/>
          <path id="Path_8599" data-name="Path 8599" d="M2662.465,833.66l69.826,50.731V833.66Z" transform="translate(-1398.043 -702.103)" fill="none"/>
          <path id="Path_8600" data-name="Path 8600" d="M2464.544,833.66l278.182,202.111V985.04L2534.37,833.66Z" transform="translate(-1408.478 -702.103)" fill="none"/>
          <path id="Path_8601" data-name="Path 8601" d="M2625.386,708.692l262.641,190.82V772.641l-88.018-63.949Z" transform="translate(-1399.998 -708.692)" fill="#c300a5"/>
          <path id="Path_8602" data-name="Path 8602" d="M2375.9,708.692l525.283,381.64V963.462l-350.66-254.77Z" transform="translate(-1413.151 -708.692)" fill="#c300a5"/>
          <path id="Path_8603" data-name="Path 8603" d="M2126.41,708.692l787.924,572.46V1154.282h0l-613.3-445.589Z" transform="translate(-1426.305 -708.692)" fill="#c300a5"/>
          <path id="Path_8604" data-name="Path 8604" d="M1876.922,708.692l1050.566,763.281V1345.1l-875.943-636.41Z" transform="translate(-1439.459 -708.692)" fill="#c300a5"/>
          <path id="Path_8605" data-name="Path 8605" d="M1627.433,708.692l1152.056,837.016h161.153v-9.786L1802.057,708.692Z" transform="translate(-1452.612 -708.692)" fill="#c300a5"/>
          <path id="Path_8606" data-name="Path 8606" d="M2700.226,1545.708,1548.17,708.692h-86.8V772.5L2525.6,1545.708Z" transform="translate(-1461.368 -708.692)" fill="#c300a5"/>
          <path id="Path_8609" data-name="Path 8609" d="M2174.942,1529.754l-713.575-518.442v126.871l538.952,391.571Z" transform="translate(-1461.368 -692.737)" fill="#c300a5"/>
          <path id="Path_8610" data-name="Path 8610" d="M2437.584,1539.31,1461.368,830.048V956.919l801.593,582.391Z" transform="translate(-1461.368 -702.294)" fill="#c300a5"/>
        </g>
        <path id="Path_8611" data-name="Path 8611" d="M2051.57,933.659H1871.906l-175.13,538.994" transform="translate(-1696.776 -933.659)" fill="none"/>
      </g>
    </g>
  </g>
</svg>
