<svg xmlns="http://www.w3.org/2000/svg" xmlns:xlink="http://www.w3.org/1999/xlink" width="918.749" height="735" viewBox="0 0 918.749 735">
  <defs>
    <linearGradient id="linear-gradient" x1="0.28" y1="1.073" x2="0.707" y2="-0.04" gradientUnits="objectBoundingBox">
      <stop offset="0" stop-color="#641eaa"/>
      <stop offset="0.2" stop-color="#681ca9"/>
      <stop offset="0.408" stop-color="#7418a9"/>
      <stop offset="0.618" stop-color="#8912a8"/>
      <stop offset="0.83" stop-color="#a609a6"/>
      <stop offset="1" stop-color="#c300a5"/>
    </linearGradient>
    <clipPath id="clip-path">
      <path id="Path_8612" data-name="Path 8612" d="M1696.776,1668.658h245l238.816-735h-245Z" transform="translate(-1696.776 -933.659)" fill="none"/>
    </clipPath>
    <clipPath id="clip-path-2">
      <path id="Path_8630" data-name="Path 8630" d="M1479.135,1668.658h312.434l238.816-735h-551.25Z" transform="translate(-1479.135 -933.659)" fill="none"/>
    </clipPath>
  </defs>
  <g id="Group_6282" data-name="Group 6282" transform="translate(-1479.135 -933.659)">
    <path id="Path_8594" data-name="Path 8594" d="M2064.275,1668.658l238.816-735h-367.5l-238.816,735h367.5Z" transform="translate(94.793 0)" fill="url(#linear-gradient)"/>
    <g id="Group_4994" data-name="Group 4994" transform="translate(1791.568 933.659)">
      <g id="Group_4993" data-name="Group 4993" clip-path="url(#clip-path)">
        <g id="Group_4992" data-name="Group 4992" transform="translate(-337.939 -322.95)">
          <path id="Path_8595" data-name="Path 8595" d="M2266.623,833.66,2930.09,1315.7v-69.18L2361.841,833.66Z" transform="translate(-1110.642 -654.262)" fill="none"/>
          <path id="Path_8596" data-name="Path 8596" d="M1796.568,833.66H1701.35l1246.289,905.481H2758.732L1607.448,902.685v69.18l1056.067,767.277H2474.608l-867.16-630.028v69.18l771.942,560.848H2190.483l-583.036-423.6v69.18l487.817,354.42H1906.359L1607.448,1521.97v69.18l203.693,147.991H1622.234l-14.786-10.743v10.743h1435.41Z" transform="translate(-1397.743 -654.262)" fill="none"/>
          <path id="Path_8597" data-name="Path 8597" d="M2068.7,833.66l947.592,688.465v-69.18L2163.92,833.66Z" transform="translate(-1196.846 -654.262)" fill="none"/>
          <path id="Path_8598" data-name="Path 8598" d="M1870.781,833.66,3102.5,1728.554v-69.18L1966,833.66Z" transform="translate(-1283.049 -654.262)" fill="none"/>
          <path id="Path_8599" data-name="Path 8599" d="M2662.465,833.66l95.218,69.18V833.66Z" transform="translate(-938.235 -654.262)" fill="none"/>
          <path id="Path_8600" data-name="Path 8600" d="M2464.544,833.66l379.343,275.609v-69.18L2559.762,833.66Z" transform="translate(-1024.438 -654.262)" fill="none"/>
          <path id="Path_8601" data-name="Path 8601" d="M2625.386,708.692,2983.537,968.9V795.9l-120.026-87.2Z" transform="translate(-954.384 -708.692)" fill="#c300a5"/>
          <path id="Path_8602" data-name="Path 8602" d="M2375.9,708.692l716.3,520.424V1056.109L2614.022,708.692Z" transform="translate(-1063.048 -708.692)" fill="#c300a5"/>
          <path id="Path_8603" data-name="Path 8603" d="M2126.41,708.692l1074.454,780.636V1316.321h0L2364.534,708.692Z" transform="translate(-1171.711 -708.692)" fill="#c300a5"/>
          <path id="Path_8604" data-name="Path 8604" d="M1876.922,708.692,3309.527,1749.54V1576.532L2115.046,708.692Z" transform="translate(-1280.375 -708.692)" fill="#c300a5"/>
          <path id="Path_8605" data-name="Path 8605" d="M1627.433,708.692l1571,1141.4h219.756v-13.345L1865.559,708.692Z" transform="translate(-1389.038 -708.692)" fill="#c300a5"/>
          <path id="Path_8606" data-name="Path 8606" d="M3150.737,1850.09l-1571-1141.4H1461.368V795.7L2912.613,1850.09Z" transform="translate(-1461.368 -708.692)" fill="#c300a5"/>
          <path id="Path_8609" data-name="Path 8609" d="M2434.434,1718.285l-973.067-706.974v173.007l734.942,533.966Z" transform="translate(-1461.368 -576.887)" fill="#c300a5"/>
          <path id="Path_8610" data-name="Path 8610" d="M2792.586,1797.234,1461.368,830.048v173.007l1093.093,794.178Z" transform="translate(-1461.368 -655.836)" fill="#c300a5"/>
        </g>
        <path id="Path_8611" data-name="Path 8611" d="M2180.591,933.659h-245l-238.816,735" transform="translate(-1696.776 -933.659)" fill="none"/>
      </g>
    </g>
    <g id="Group_4997" data-name="Group 4997" transform="translate(1479.135 933.659)">
      <g id="Group_4996" data-name="Group 4996" clip-path="url(#clip-path-2)">
        <g id="Group_4995" data-name="Group 4995" transform="translate(-25.505 -322.95)">
          <path id="Path_8613" data-name="Path 8613" d="M2266.623,833.66,2930.09,1315.7v-69.18L2361.841,833.66Z" transform="translate(-1110.642 -654.262)" fill="none"/>
          <path id="Path_8614" data-name="Path 8614" d="M1796.568,833.66H1701.35l1246.289,905.481H2758.732L1607.448,902.685v69.18l1056.067,767.277H2474.608l-867.16-630.028v69.18l771.942,560.848H2190.483l-583.036-423.6v69.18l487.817,354.42H1906.359L1607.448,1521.97v69.18l203.693,147.991H1622.234l-14.786-10.743v10.743h1435.41Z" transform="translate(-1397.743 -654.262)" fill="none"/>
          <path id="Path_8615" data-name="Path 8615" d="M2068.7,833.66l947.592,688.465v-69.18L2163.92,833.66Z" transform="translate(-1196.846 -654.262)" fill="none"/>
          <path id="Path_8616" data-name="Path 8616" d="M1870.781,833.66,3102.5,1728.554v-69.18L1966,833.66Z" transform="translate(-1283.049 -654.262)" fill="none"/>
          <path id="Path_8617" data-name="Path 8617" d="M2662.465,833.66l95.218,69.18V833.66Z" transform="translate(-938.235 -654.262)" fill="none"/>
          <path id="Path_8618" data-name="Path 8618" d="M2464.544,833.66l379.343,275.609v-69.18L2559.762,833.66Z" transform="translate(-1024.438 -654.262)" fill="none"/>
          <path id="Path_8619" data-name="Path 8619" d="M2625.386,708.692,2983.537,968.9V795.9l-120.026-87.2Z" transform="translate(-954.384 -708.692)"/>
          <path id="Path_8620" data-name="Path 8620" d="M2375.9,708.692l716.3,520.424V1056.109L2614.022,708.692Z" transform="translate(-1063.048 -708.692)"/>
          <path id="Path_8621" data-name="Path 8621" d="M2126.41,708.692l1074.454,780.636V1316.321h0L2364.534,708.692Z" transform="translate(-1171.711 -708.692)"/>
          <path id="Path_8622" data-name="Path 8622" d="M1876.922,708.692,3309.527,1749.54V1576.532L2115.046,708.692Z" transform="translate(-1280.375 -708.692)"/>
          <path id="Path_8623" data-name="Path 8623" d="M1627.433,708.692l1571,1141.4h219.756v-13.345L1865.559,708.692Z" transform="translate(-1389.038 -708.692)"/>
          <path id="Path_8624" data-name="Path 8624" d="M3150.737,1850.09l-1571-1141.4H1461.368V795.7L2912.613,1850.09Z" transform="translate(-1461.368 -708.692)"/>
          <path id="Path_8627" data-name="Path 8627" d="M2434.434,1718.285l-973.067-706.974v173.007l734.942,533.966Z" transform="translate(-1461.368 -576.887)"/>
          <path id="Path_8628" data-name="Path 8628" d="M2792.586,1797.234,1461.368,830.048v173.007l1093.093,794.178Z" transform="translate(-1461.368 -655.836)"/>
        </g>
        <path id="Path_8629" data-name="Path 8629" d="M1696.776,1445.659" transform="translate(-1384.342 -710.659)" fill="none"/>
      </g>
    </g>
  </g>
</svg>
